<svg id="Слой_1" data-name="Слой 1" xmlns="http://www.w3.org/2000/svg" viewBox="0 0 131.49 131.5"><defs><style>.cls-1{fill:#a09b98;}.cls-2{fill:#c6c1bd;}.cls-3{fill:#202321;}</style></defs><ellipse class="cls-1" cx="65.75" cy="65.75" rx="65.75" ry="65.75"/><circle class="cls-2" cx="61.6" cy="69.9" r="60.21"/><path class="cls-3" d="M319.2-179.27l17.52,36.19a8.52,8.52,0,0,1,1.1,3.31c0,1.55-1.26,3-3.76,4.21a8.43,8.43,0,0,1-3.47,1.1,3.46,3.46,0,0,1-2.08-.58,3.94,3.94,0,0,1-1.17-1.23c-.24-.43-.57-1.08-1-1.95l-3.38-7H305l-3.37,7c-.44.87-.77,1.49-1,1.88a4.65,4.65,0,0,1-1.17,1.2,3.33,3.33,0,0,1-2.07.62,8.54,8.54,0,0,1-3.47-1.1c-2.51-1.21-3.77-2.6-3.77-4.15a8.41,8.41,0,0,1,1.11-3.31l17.51-36.26a5.76,5.76,0,0,1,2.17-2.4,5.81,5.81,0,0,1,3.08-.91A5.49,5.49,0,0,1,319.2-179.27ZM314-163.71l-4.28,8.89h8.62Z" transform="translate(-259.51 225.89)"/><path class="cls-3" d="M341.39-179.66a20.37,20.37,0,0,1,.09-2.24,6.25,6.25,0,0,1,.55-1.72q.92-1.75,5.06-1.75,4,0,4.93,1.75a5.21,5.21,0,0,1,.62,1.75,20.85,20.85,0,0,1,.1,2.27v30a6.75,6.75,0,0,0,.39,2.95c.25.41.83.62,1.71.62a9.82,9.82,0,0,1,1.79.1,3.19,3.19,0,0,1,1.1.55c.86.56,1.3,2.1,1.3,4.6,0,2.73-.44,4.39-1.3,5-1.12.78-3.81.91-8,.39-3.33-.43-5.49-1.54-6.49-3.31q-1.81-3.18-1.81-10.12Z" transform="translate(-259.51 225.89)"/></svg>