<svg id="Слой_1" data-name="Слой 1" xmlns="http://www.w3.org/2000/svg" viewBox="0 0 139 139"><defs><style>.cls-1{fill:#1a94a8;}.cls-2{fill:#1baddb;}.cls-3{fill:#fafcfb;}</style></defs><circle class="cls-1" cx="69.5" cy="69.5" r="69.5"/><circle class="cls-2" cx="65.11" cy="73.89" r="63.65"/><path class="cls-3" d="M647.72-149.7l1.25-.91a8.26,8.26,0,0,1,3.34-1.39q2.16,0,4.67,3.9a8.18,8.18,0,0,1,1.53,3.89,3.4,3.4,0,0,1-.94,2.44,11.18,11.18,0,0,1-2.19,1.74l-2.4,1.46a26.6,26.6,0,0,1-4.7,1.81,22.93,22.93,0,0,1-6.85,1.11,26.64,26.64,0,0,1-6.68-.87,28.23,28.23,0,0,1-7-2.92,28.74,28.74,0,0,1-6.43-5,23,23,0,0,1-4.7-7.58,26.94,26.94,0,0,1-1.84-10.06,25.7,25.7,0,0,1,1.81-9.84,22.43,22.43,0,0,1,4.62-7.31,26.5,26.5,0,0,1,6.44-4.83,28.18,28.18,0,0,1,13.7-3.76,23.25,23.25,0,0,1,6.65,1,23.66,23.66,0,0,1,5.11,2l1.67,1c.83.51,1.48.93,1.95,1.25a4.23,4.23,0,0,1,1.81,3.3,6.66,6.66,0,0,1-1.47,3.87c-1.8,2.5-3.43,3.75-4.87,3.75a7.35,7.35,0,0,1-3.54-1.53,12.07,12.07,0,0,0-7.8-2.36,15.17,15.17,0,0,0-8.9,3.13,11.77,11.77,0,0,0-3.48,4.31,13.86,13.86,0,0,0-1.39,6.3,13.82,13.82,0,0,0,1.39,6.29,11.92,11.92,0,0,0,3.55,4.38A14.84,14.84,0,0,0,640.9-148a14.5,14.5,0,0,0,4.07-.56A10.47,10.47,0,0,0,647.72-149.7Z" transform="translate(-588.64 232.63)"/><path class="cls-3" d="M686.89-169.11q.42-3.9,5.49-3.9a14.35,14.35,0,0,1,4,.42,2.88,2.88,0,0,1,1.84,1.46,5.91,5.91,0,0,1,.63,1.84,20.47,20.47,0,0,1,.1,2.4v24.35a20.24,20.24,0,0,1-.1,2.4,6.61,6.61,0,0,1-.59,1.85q-1,1.8-4.77,1.8t-5.08-.93a3.77,3.77,0,0,1-1.49-2.75q-2.58,3.69-8.59,3.68T667.2-142a18.12,18.12,0,0,1-5.15-12.77,17.91,17.91,0,0,1,5.19-12.73q5.18-5.46,11.37-5.46a10.76,10.76,0,0,1,4.31.84,9.4,9.4,0,0,1,2.72,1.56A9.82,9.82,0,0,1,686.89-169.11Zm-12.66,14.47A5.76,5.76,0,0,0,676-150.5a5.88,5.88,0,0,0,4.38,1.84,5.56,5.56,0,0,0,4.28-1.88,6,6,0,0,0,1.7-4.14,6.44,6.44,0,0,0-1.63-4.21,5.45,5.45,0,0,0-4.39-1.94,5.66,5.66,0,0,0-4.45,1.94A6.31,6.31,0,0,0,674.23-154.64Z" transform="translate(-588.64 232.63)"/></svg>