<svg id="Слой_1" data-name="Слой 1" xmlns="http://www.w3.org/2000/svg" viewBox="0 0 107 107"><defs><style>.cls-1{fill:#21aa21;}.cls-2{fill:#32e078;}.cls-3{fill:#fafcfb;}</style></defs><circle class="cls-1" cx="53.5" cy="53.5" r="53.5"/><circle class="cls-2" cx="50.12" cy="56.88" r="48.99"/><path class="cls-3" d="M-112.32-152.89l1-.73a6.6,6.6,0,0,1,2.68-1.11q1.73,0,3.73,3.12a6.46,6.46,0,0,1,1.23,3.12,2.7,2.7,0,0,1-.75,2,8.75,8.75,0,0,1-1.76,1.4l-1.92,1.17a21,21,0,0,1-3.77,1.45,18.45,18.45,0,0,1-5.49.89,21.08,21.08,0,0,1-5.35-.7,22.19,22.19,0,0,1-5.58-2.34,23.07,23.07,0,0,1-5.16-4,18.5,18.5,0,0,1-3.76-6.08,21.48,21.48,0,0,1-1.48-8.06,20.57,20.57,0,0,1,1.45-7.89,18,18,0,0,1,3.71-5.85,20.8,20.8,0,0,1,5.16-3.88,22.51,22.51,0,0,1,11-3,18.55,18.55,0,0,1,5.33.81A19.13,19.13,0,0,1-108-181l1.34.78c.67.41,1.19.75,1.56,1a3.36,3.36,0,0,1,1.45,2.65,5.34,5.34,0,0,1-1.17,3.09q-2.17,3-3.9,3a5.91,5.91,0,0,1-2.84-1.22,9.63,9.63,0,0,0-6.25-1.9,12.22,12.22,0,0,0-7.14,2.51,9.38,9.38,0,0,0-2.78,3.46,11,11,0,0,0-1.12,5,11.06,11.06,0,0,0,1.12,5,9.54,9.54,0,0,0,2.84,3.51,11.93,11.93,0,0,0,7.08,2.46,11.52,11.52,0,0,0,3.26-.45A8.53,8.53,0,0,0-112.32-152.89Z" transform="translate(165 217)"/><path class="cls-3" d="M-100-180.49a17.86,17.86,0,0,1,.08-1.93,5,5,0,0,1,.48-1.48q.78-1.5,4.35-1.5,3.39,0,4.23,1.5a4.29,4.29,0,0,1,.53,1.51,15.84,15.84,0,0,1,.09,1.95v25.82a5.94,5.94,0,0,0,.33,2.54c.22.35.72.53,1.48.53a8.58,8.58,0,0,1,1.53.08,2.66,2.66,0,0,1,1,.47c.74.49,1.12,1.81,1.12,4,0,2.34-.38,3.78-1.12,4.3-1,.66-3.27.78-6.91.33q-4.31-.56-5.58-2.84Q-100-148-100-153.95Z" transform="translate(165 217)"/></svg>