<svg id="Слой_1" data-name="Слой 1" xmlns="http://www.w3.org/2000/svg" viewBox="0 0 95 95"><defs><style>.cls-1{fill:#db1616;}.cls-2{fill:#e54e4e;}.cls-3{fill:#fafcfb;}</style></defs><circle class="cls-1" cx="47.5" cy="47.5" r="47.5"/><circle class="cls-2" cx="44.5" cy="50.5" r="43.5"/><path class="cls-3" d="M-223.22-181.32a2.36,2.36,0,0,1,1.46-1.14,9,9,0,0,1,2.59-.32,9.14,9.14,0,0,1,2.49.27,4.43,4.43,0,0,1,1.41.65,2.43,2.43,0,0,1,.75,1.08,10.75,10.75,0,0,1,.27,2.81v30a14.69,14.69,0,0,1-.08,1.87,4.21,4.21,0,0,1-.51,1.43c-.51,1-1.91,1.46-4.22,1.46-2.52,0-4-.66-4.43-2a8.88,8.88,0,0,1-.33-2.81v-11h-14.33v11a16.86,16.86,0,0,1-.08,1.87,4.48,4.48,0,0,1-.52,1.43c-.5,1-1.91,1.46-4.22,1.46-2.52,0-4-.66-4.43-2a8.88,8.88,0,0,1-.33-2.81v-30a16.86,16.86,0,0,1,.08-1.87,4.48,4.48,0,0,1,.52-1.43c.5-1,1.91-1.46,4.22-1.46q3.78,0,4.49,2a10.75,10.75,0,0,1,.27,2.81v11h14.33V-178a16.86,16.86,0,0,1,.08-1.87A4.48,4.48,0,0,1-223.22-181.32Z" transform="translate(278 211)"/></svg>