<svg id="Слой_1" data-name="Слой 1" xmlns="http://www.w3.org/2000/svg" viewBox="0 0 153.72 153.72"><defs><style>.cls-1{fill:#565456;}.cls-2{fill:#7a6d7c;}.cls-3{fill:#fafcfb;}</style></defs><circle class="cls-1" cx="76.86" cy="76.86" r="76.86"/><circle class="cls-2" cx="72.01" cy="81.72" r="70.39"/><path class="cls-3" d="M145.5,289.58q14,13.44,19.85,20.21,3,3.39,3,5.71T164.71,321c-2.44,2.1-4.44,3.16-6,3.16s-3.43-1.28-5.63-3.84l-20.11-23v17.83a26.46,26.46,0,0,1-.14,3.2,7.19,7.19,0,0,1-.87,2.38q-1.28,2.48-7.13,2.47-6.41,0-7.5-3.47a14.57,14.57,0,0,1-.55-4.67V264.25a26.67,26.67,0,0,1,.14-3.15,7.21,7.21,0,0,1,.87-2.42q1.28-2.48,7.13-2.47,6.4,0,7.59,3.38a17.93,17.93,0,0,1,.46,4.75v17.47q12.44-14,20.11-22.95,3.21-3.75,5.58-3.75t6,3.15q3.64,3.17,3.65,5.49c0,1.55-.91,3.4-2.74,5.53q-5.31,6.14-16.46,16.83Z" transform="translate(-66.28 -212.18)"/></svg>