<svg id="Слой_1" data-name="Слой 1" xmlns="http://www.w3.org/2000/svg" viewBox="0 0 81.95 81.95"><defs><style>.cls-1{fill:#2f26ea;}.cls-2{fill:#5353ea;}.cls-3{fill:#fafcfb;}</style></defs><circle class="cls-1" cx="40.97" cy="40.97" r="40.97"/><circle class="cls-2" cx="38.39" cy="43.56" r="37.52"/><path class="cls-3" d="M428.17,330.19a2.06,2.06,0,0,1,1.22-1,6.86,6.86,0,0,1,2-.26,7.09,7.09,0,0,1,2,.22,3,3,0,0,1,1.11.51,1.73,1.73,0,0,1,.53.9,6.69,6.69,0,0,1,.26,2.18v23.73a13.39,13.39,0,0,1-.06,1.5,3.65,3.65,0,0,1-.41,1.11c-.4.77-1.51,1.15-3.34,1.15a7,7,0,0,1-2.3-.25,2.4,2.4,0,0,1-1.07-.82q-9.63-12.82-12.66-16.76v14.07a10.92,10.92,0,0,1-.07,1.5,3.34,3.34,0,0,1-.4,1.11c-.4.77-1.51,1.15-3.34,1.15s-2.85-.38-3.25-1.15a3.49,3.49,0,0,1-.4-1.16,11.24,11.24,0,0,1-.07-1.49V332.57a5.23,5.23,0,0,1,.41-2.38,2.06,2.06,0,0,1,1.22-1,7.11,7.11,0,0,1,2.09-.26,6.81,6.81,0,0,1,2,.24,2.54,2.54,0,0,1,1.05.53,12.44,12.44,0,0,1,1,1.11q9,12.29,12.05,16.21V332.57A5.23,5.23,0,0,1,428.17,330.19Z" transform="translate(-381.05 -301.92)"/></svg>