<svg id="Слой_1" data-name="Слой 1" xmlns="http://www.w3.org/2000/svg" viewBox="0 0 139 139"><defs><style>.cls-1{fill:#ae22b2;}.cls-2{fill:#ac57b5;}.cls-3{fill:#fafcfb;}</style></defs><circle class="cls-1" cx="69.5" cy="69.5" r="69.5"/><circle class="cls-2" cx="65.11" cy="73.89" r="63.65"/><path class="cls-3" d="M474.21-185.13a3.38,3.38,0,0,1,2-1.64,11,11,0,0,1,3.3-.42,12.06,12.06,0,0,1,3.2.35,5.1,5.1,0,0,1,1.81.84,2.81,2.81,0,0,1,.87,1.46,10.85,10.85,0,0,1,.42,3.55v38.61a19.65,19.65,0,0,1-.11,2.43,5.68,5.68,0,0,1-.66,1.81q-1,1.88-5.42,1.88a11.43,11.43,0,0,1-3.76-.42,4.05,4.05,0,0,1-1.74-1.32q-15.64-20.87-20.59-27.27v22.89a19.65,19.65,0,0,1-.11,2.43,5.68,5.68,0,0,1-.66,1.81q-1,1.88-5.42,1.88T442-138.14a5.59,5.59,0,0,1-.66-1.88,20.71,20.71,0,0,1-.11-2.43v-38.82a8.34,8.34,0,0,1,.67-3.86,3.33,3.33,0,0,1,2-1.64,11.51,11.51,0,0,1,3.41-.42,11.17,11.17,0,0,1,3.3.39,4.2,4.2,0,0,1,1.71.87,20.14,20.14,0,0,1,1.6,1.81q14.67,20,19.61,26.36v-23.51A8.49,8.49,0,0,1,474.21-185.13Z" transform="translate(-415.48 232.54)"/><path class="cls-3" d="M515.16-169c.27-2.6,2.1-3.89,5.49-3.89a14.87,14.87,0,0,1,4,.41,2.94,2.94,0,0,1,1.84,1.46,6,6,0,0,1,.63,1.85,22.69,22.69,0,0,1,.1,2.4v24.35a23,23,0,0,1-.1,2.4,6.4,6.4,0,0,1-.6,1.84c-.65,1.21-2.23,1.81-4.76,1.81s-4.22-.31-5.08-.94a3.76,3.76,0,0,1-1.5-2.75q-2.57,3.69-8.59,3.69t-11.16-5.5a18.06,18.06,0,0,1-5.15-12.76,17.93,17.93,0,0,1,5.18-12.73q5.19-5.46,11.38-5.46a10.79,10.79,0,0,1,4.31.83,9.53,9.53,0,0,1,2.71,1.57A9.89,9.89,0,0,1,515.16-169Zm-12.67,14.47a5.8,5.8,0,0,0,1.81,4.14,5.92,5.92,0,0,0,4.38,1.84,5.52,5.52,0,0,0,4.28-1.87,6,6,0,0,0,1.71-4.14A6.43,6.43,0,0,0,513-158.8a5.42,5.42,0,0,0-4.38-1.95,5.62,5.62,0,0,0-4.45,1.95A6.3,6.3,0,0,0,502.49-154.56Z" transform="translate(-415.48 232.54)"/></svg>