<svg id="Слой_1" data-name="Слой 1" xmlns="http://www.w3.org/2000/svg" viewBox="0 0 75 75"><defs><style>.cls-1{fill:#e5dada;}.cls-2{fill:#f2ebeb;}.cls-3{fill:#202321;}</style></defs><circle class="cls-1" cx="37.5" cy="37.5" r="37.5"/><circle class="cls-2" cx="35.13" cy="39.87" r="34.34"/><path class="cls-3" d="M603,405.89a15.74,15.74,0,0,1,15.62,15.91,16.29,16.29,0,0,1-4.44,11.53,14.37,14.37,0,0,1-10.93,4.76,14.79,14.79,0,0,1-11-4.7,15.52,15.52,0,0,1-4.54-11.18,17,17,0,0,1,1.28-6.64,15.27,15.27,0,0,1,3.41-5.19,16,16,0,0,1,4.91-3.29A14.3,14.3,0,0,1,603,405.89ZM595.19,422a8.17,8.17,0,0,0,2.46,6.17,7.59,7.59,0,0,0,11,.07A8.1,8.1,0,0,0,611,422a8.24,8.24,0,0,0-2.46-6.24,7.78,7.78,0,0,0-5.49-2.35,7.64,7.64,0,0,0-5.46,2.37A8.25,8.25,0,0,0,595.19,422Z" transform="translate(-566 -384)"/></svg>