<svg id="Слой_1" data-name="Слой 1" xmlns="http://www.w3.org/2000/svg" viewBox="0 0 123.56 123.57"><defs><style>.cls-1{fill:#b7641a;}.cls-2{fill:#ea931f;}.cls-3{fill:#fafcfb;}</style></defs><ellipse class="cls-1" cx="61.78" cy="61.79" rx="61.78" ry="61.79"/><circle class="cls-2" cx="57.88" cy="65.69" r="56.58"/><path class="cls-3" d="M195.66-182.17a23,23,0,0,1,2.26,10.28,22.67,22.67,0,0,1-2.26,10.22,20.17,20.17,0,0,1-5.83,7.27q-7.23,5.58-15,5.57H164V-139a24.71,24.71,0,0,1-.13,3,6.87,6.87,0,0,1-.82,2.31c-.82,1.56-3.08,2.35-6.79,2.35-4.06,0-6.44-1.08-7.14-3.22a14.56,14.56,0,0,1-.52-4.53v-48.31a24.71,24.71,0,0,1,.13-3,6.92,6.92,0,0,1,.83-2.31c.81-1.56,3.07-2.35,6.78-2.35h18.63q7.67,0,14.89,5.57A20.15,20.15,0,0,1,195.66-182.17Zm-15.58,16a6.75,6.75,0,0,0,2.52-5.74,6.87,6.87,0,0,0-2.52-5.79,8.44,8.44,0,0,0-5.23-2H164v15.41h11A8.45,8.45,0,0,0,180.08-166.15Z" transform="translate(-111.44 224.79)"/></svg>