<svg id="Слой_1" data-name="Слой 1" xmlns="http://www.w3.org/2000/svg" viewBox="0 0 112.2 112.21"><defs><style>.cls-1{fill:#c1b32d;}.cls-2{fill:#e5ea26;}.cls-3{fill:#fafcfb;}</style></defs><ellipse class="cls-1" cx="56.1" cy="56.11" rx="56.1" ry="56.11"/><circle class="cls-2" cx="52.56" cy="59.65" r="51.38"/><path class="cls-3" d="M3.32-142.41A7.59,7.59,0,0,1,1.26-147c0-1.34,1.14-3.12,3.4-5.33a6,6,0,0,1,4.19-1.9c1.48,0,3.53,1.32,6.17,3.95a11.69,11.69,0,0,0,3.16,2.57A7.48,7.48,0,0,0,22-146.44q7.35,0,7.35-6a3.54,3.54,0,0,0-2-3,14.8,14.8,0,0,0-5-1.78A43.08,43.08,0,0,1,15.81-159a42.52,42.52,0,0,1-6.48-2.89,13,13,0,0,1-5-5.25,17.38,17.38,0,0,1-2-8.66A16.63,16.63,0,0,1,7.47-188q5.18-5.18,14.11-5.18a28.74,28.74,0,0,1,8.65,1.23,16.74,16.74,0,0,1,5.42,2.49l2,1.5c1.64,1.53,2.45,2.82,2.45,3.87s-.63,2.51-1.89,4.35c-1.8,2.64-3.64,3.95-5.54,3.95a8.09,8.09,0,0,1-4.11-1.58,10,10,0,0,1-.91-.79,12.19,12.19,0,0,0-1.22-1,8,8,0,0,0-4.23-1A7.16,7.16,0,0,0,17.9-179a4,4,0,0,0-1.7,3.4,4.09,4.09,0,0,0,2,3.52,12.53,12.53,0,0,0,5,1.82,57.54,57.54,0,0,1,6.56,1.46,41.12,41.12,0,0,1,6.56,2.41,11.61,11.61,0,0,1,5,4.94,17.19,17.19,0,0,1,2,8.65,19.17,19.17,0,0,1-2,9.05A15.58,15.58,0,0,1,36-137.67a24.54,24.54,0,0,1-13.67,4.19,26.84,26.84,0,0,1-7-.91,19.35,19.35,0,0,1-5.37-2.25A19.36,19.36,0,0,1,4-141.54Z" transform="translate(33.2 219.21)"/></svg>