<svg id="Слой_1" data-name="Слой 1" xmlns="http://www.w3.org/2000/svg" viewBox="0 0 259.99 428"><defs><style>.cls-1,.cls-2,.cls-3,.cls-4{fill:none;stroke-width:5px;}.cls-1{stroke:#35c0bd;}.cls-1,.cls-3,.cls-4{stroke-linecap:round;}.cls-1,.cls-4{stroke-miterlimit:10;}.cls-2,.cls-3,.cls-4{stroke:#35c1bb;}.cls-2{stroke-linecap:square;}.cls-2,.cls-3{stroke-linejoin:bevel;}</style></defs><path class="cls-1" d="M540.23,330.05q-.09-2.25-.09-4.5a127.57,127.57,0,0,1,87-120.93" transform="translate(-537.64 -111.55)"/><path class="cls-1" d="M711.14,205.67a127.54,127.54,0,0,1,83.91,124.38" transform="translate(-537.64 -111.55)"/><path class="cls-2" d="M627.05,153.88q-1,0-2-.09c-10.6-1-18.9-9.47-18.9-19.82h0c0-11,9.37-19.92,20.91-19.92h84.18c11.55,0,20.91,8.92,20.91,19.92h0c0,10.35-8.29,18.86-18.9,19.82q-1,.09-2,.09" transform="translate(-537.64 -111.55)"/><line class="cls-3" x1="173.5" y1="60.67" x2="173.5" y2="92.89"/><polyline class="cls-4" points="89.5 92.89 89.5 93.07 89.5 60.72"/><line class="cls-2" x1="173.56" y1="41.5" x2="173.56" y2="73.72"/><polyline class="cls-2" points="89.56 73.72 89.56 73.89 89.56 41.55"/><path class="cls-1" d="M627.14,446.48a127.57,127.57,0,0,1-87-120.93q0-2.25.09-4.5" transform="translate(-537.64 -111.55)"/><path class="cls-1" d="M795.05,321.05a127.54,127.54,0,0,1-83.91,124.38" transform="translate(-537.64 -111.55)"/><path class="cls-2" d="M627.05,497.23q-1,0-2,.09c-10.6,1-18.9,9.47-18.9,19.82h0c0,11,9.37,19.91,20.91,19.91h84.18c11.55,0,20.91-8.91,20.91-19.91h0c0-10.35-8.29-18.86-18.9-19.82q-1-.09-2-.09" transform="translate(-537.64 -111.55)"/><line class="cls-3" x1="173.5" y1="367.33" x2="173.5" y2="335.11"/><polyline class="cls-4" points="89.5 335.11 89.5 334.93 89.5 367.28"/><line class="cls-2" x1="173.56" y1="386.5" x2="173.56" y2="354.28"/><polyline class="cls-2" points="89.56 354.29 89.56 354.11 89.56 386.45"/></svg>