<svg id="Слой_1" data-name="Слой 1" xmlns="http://www.w3.org/2000/svg" viewBox="0 0 172.64 90"><defs><style>.cls-1,.cls-2,.cls-4,.cls-5,.cls-6{fill:none;}.cls-2{stroke:#35c0bd;}.cls-2,.cls-4,.cls-5{stroke-linecap:round;}.cls-2,.cls-5{stroke-miterlimit:10;}.cls-2,.cls-3,.cls-4,.cls-5,.cls-6{stroke-width:5px;}.cls-3{fill:#fff;}.cls-3,.cls-4,.cls-5,.cls-6{stroke:#35c1bb;}.cls-3,.cls-6{stroke-linecap:square;}.cls-3,.cls-4,.cls-6{stroke-linejoin:bevel;}</style></defs><line class="cls-1" y1="37.44" x2="36" y2="37.44"/><path class="cls-2" d="M669.14,368q-.75,0-1.5,0a42.52,42.52,0,0,1-40.31-29" transform="translate(-568 -280.56)"/><path class="cls-2" d="M627.68,311.05a42.51,42.51,0,0,1,41.46-28" transform="translate(-568 -280.56)"/><path class="cls-3" d="M610.41,339.08c0,.23,0,.45,0,.67a6.76,6.76,0,0,1-6.6,6.3h0a6.81,6.81,0,0,1-6.64-7V311a6.81,6.81,0,0,1,6.64-7h0a6.77,6.77,0,0,1,6.6,6.3c0,.22,0,.45,0,.67" transform="translate(-568 -280.56)"/><line class="cls-4" x1="48.53" y1="30.5" x2="59.27" y2="30.5"/><polyline class="cls-5" points="59.27 58.5 59.33 58.5 48.55 58.5"/><line class="cls-6" x1="42.14" y1="30.47" x2="52.88" y2="30.47"/><polyline class="cls-6" points="52.88 58.48 52.94 58.48 42.16 58.48"/><path class="cls-2" d="M708,339.05a42.52,42.52,0,0,1-40.31,29q-.75,0-1.5,0" transform="translate(-568 -280.56)"/><path class="cls-2" d="M666.14,283.08a42.51,42.51,0,0,1,41.46,28" transform="translate(-568 -280.56)"/><path class="cls-6" d="M724.86,339.08c0,.23,0,.45,0,.67a6.77,6.77,0,0,0,6.61,6.3h0a6.81,6.81,0,0,0,6.64-7V311a6.81,6.81,0,0,0-6.64-7h0a6.78,6.78,0,0,0-6.61,6.3c0,.22,0,.45,0,.67" transform="translate(-568 -280.56)"/><line class="cls-4" x1="150.75" y1="30.5" x2="140.01" y2="30.5"/><polyline class="cls-5" points="140.01 58.5 139.95 58.5 150.73 58.5"/><line class="cls-6" x1="157.14" y1="30.47" x2="146.4" y2="30.47"/><polyline class="cls-6" points="146.4 58.48 146.34 58.48 157.12 58.48"/></svg>