<svg id="Слой_1" data-name="Слой 1" xmlns="http://www.w3.org/2000/svg" viewBox="0 0 146 90"><defs><style>.cls-1,.cls-3,.cls-4,.cls-5{fill:none;}.cls-1{stroke:#35c0bd;}.cls-1,.cls-3,.cls-4{stroke-linecap:round;}.cls-1,.cls-4{stroke-miterlimit:10;}.cls-1,.cls-2,.cls-3,.cls-4,.cls-5{stroke-width:5px;}.cls-2{fill:#fff;}.cls-2,.cls-3,.cls-4,.cls-5{stroke:#35c1bb;}.cls-2,.cls-5{stroke-linecap:square;}.cls-2,.cls-3,.cls-5{stroke-linejoin:bevel;}</style></defs><path class="cls-1" d="M669.14,368q-.75,0-1.5,0a42.52,42.52,0,0,1-40.31-29" transform="translate(-594.64 -280.56)"/><path class="cls-1" d="M627.68,311.05a42.51,42.51,0,0,1,41.46-28" transform="translate(-594.64 -280.56)"/><path class="cls-2" d="M610.41,339.08c0,.23,0,.45,0,.67a6.76,6.76,0,0,1-6.6,6.3h0a6.81,6.81,0,0,1-6.64-7V311a6.81,6.81,0,0,1,6.64-7h0a6.77,6.77,0,0,1,6.6,6.3c0,.22,0,.45,0,.67" transform="translate(-594.64 -280.56)"/><line class="cls-3" x1="21.89" y1="30.5" x2="32.63" y2="30.5"/><polyline class="cls-4" points="32.63 58.5 32.69 58.5 21.91 58.5"/><line class="cls-5" x1="15.5" y1="30.47" x2="26.24" y2="30.47"/><polyline class="cls-5" points="26.24 58.48 26.3 58.48 15.52 58.48"/><path class="cls-1" d="M708,339.05a42.52,42.52,0,0,1-40.31,29q-.75,0-1.5,0" transform="translate(-594.64 -280.56)"/><path class="cls-1" d="M666.14,283.08a42.51,42.51,0,0,1,41.46,28" transform="translate(-594.64 -280.56)"/><path class="cls-5" d="M724.86,339.08c0,.23,0,.45,0,.67a6.77,6.77,0,0,0,6.61,6.3h0a6.81,6.81,0,0,0,6.64-7V311a6.81,6.81,0,0,0-6.64-7h0a6.78,6.78,0,0,0-6.61,6.3c0,.22,0,.45,0,.67" transform="translate(-594.64 -280.56)"/><line class="cls-3" x1="124.11" y1="30.5" x2="113.37" y2="30.5"/><polyline class="cls-4" points="113.37 58.5 113.31 58.5 124.09 58.5"/><line class="cls-5" x1="130.5" y1="30.47" x2="119.76" y2="30.47"/><polyline class="cls-5" points="119.76 58.48 119.7 58.48 130.48 58.48"/></svg>