<svg id="Слой_1" data-name="Слой 1" xmlns="http://www.w3.org/2000/svg" viewBox="0 0 90 146"><defs><style>.cls-1,.cls-2,.cls-3,.cls-4{fill:none;stroke-width:5px;}.cls-1{stroke:#35c0bd;}.cls-1,.cls-3,.cls-4{stroke-linecap:round;}.cls-1,.cls-4{stroke-miterlimit:10;}.cls-2,.cls-3,.cls-4{stroke:#35c1bb;}.cls-2{stroke-linecap:square;}.cls-2,.cls-3{stroke-linejoin:bevel;}</style></defs><path class="cls-1" d="M625.17,327.05q0-.75,0-1.5a42.52,42.52,0,0,1,29-40.31" transform="translate(-622.64 -252.55)"/><path class="cls-1" d="M682.14,285.59a42.51,42.51,0,0,1,28,41.46" transform="translate(-622.64 -252.55)"/><path class="cls-2" d="M654.11,268.33c-.23,0-.45,0-.67,0a6.78,6.78,0,0,1-6.3-6.61h0a6.82,6.82,0,0,1,7-6.64h28.06a6.82,6.82,0,0,1,7,6.64h0a6.77,6.77,0,0,1-6.3,6.61c-.22,0-.44,0-.67,0" transform="translate(-622.64 -252.55)"/><line class="cls-3" x1="59.5" y1="21.89" x2="59.5" y2="32.63"/><polyline class="cls-4" points="31.5 32.63 31.5 32.69 31.5 21.91"/><line class="cls-2" x1="59.52" y1="15.5" x2="59.52" y2="26.24"/><polyline class="cls-2" points="31.52 26.24 31.52 26.3 31.52 15.52"/><path class="cls-1" d="M654.14,365.86a42.52,42.52,0,0,1-29-40.31q0-.75,0-1.5" transform="translate(-622.64 -252.55)"/><path class="cls-1" d="M710.11,324.05a42.51,42.51,0,0,1-28,41.46" transform="translate(-622.64 -252.55)"/><path class="cls-2" d="M654.11,382.78c-.23,0-.45,0-.67,0a6.77,6.77,0,0,0-6.3,6.61h0a6.81,6.81,0,0,0,7,6.63h28.06a6.81,6.81,0,0,0,7-6.63h0a6.76,6.76,0,0,0-6.3-6.61c-.22,0-.44,0-.67,0" transform="translate(-622.64 -252.55)"/><line class="cls-3" x1="59.5" y1="124.11" x2="59.5" y2="113.37"/><polyline class="cls-4" points="31.5 113.37 31.5 113.31 31.5 124.09"/><line class="cls-2" x1="59.52" y1="130.5" x2="59.52" y2="119.76"/><polyline class="cls-2" points="31.52 119.76 31.52 119.7 31.52 130.48"/></svg>